<svg width="162" height="166" viewBox="0 0 162 166" fill="none" xmlns="http://www.w3.org/2000/svg">
<path d="M80.7179 165.744C36.2064 165.744 0 128.571 0 82.8718C0 37.1726 36.2064 0 80.7179 0C125.229 0 161.436 37.1726 161.436 82.8718C161.436 128.571 125.229 165.744 80.7179 165.744ZM80.7179 19.5443C46.6578 19.5443 19.0363 47.9986 19.0363 82.8718C19.0363 117.841 46.7511 146.199 80.7179 146.199C114.685 146.199 142.399 117.745 142.399 82.8718C142.493 47.9028 114.778 19.5443 80.7179 19.5443Z" fill="rgb(250,222,20)"/>
<path d="M100.312 74.8242H97.5128C94.1534 74.8242 91.4473 72.0459 91.4473 68.5969V60.9324C91.4473 57.4834 94.1534 54.7051 97.5128 54.7051H100.312C103.672 54.7051 106.378 57.4834 106.378 60.9324V68.5969C106.378 72.0459 103.672 74.8242 100.312 74.8242Z" fill="rgb(250,222,20)"/>
<path d="M63.9177 74.8242H61.1182C57.7589 74.8242 55.0527 72.0459 55.0527 68.5969V60.9324C55.0527 57.4834 57.7589 54.7051 61.1182 54.7051H63.9177C67.2771 54.7051 69.9832 57.4834 69.9832 60.9324V68.5969C69.9832 72.0459 67.2771 74.8242 63.9177 74.8242Z" fill="rgb(250,222,20)"/>
<!-- <path fill="rgb(250,222,20)" fill-opacity="1" d=" M0.0010000000474974513,166.61300659179688 C-89.48899841308594,166.61300659179688 -162.28199768066406,91.87699890136719 -162.28199768066406,-0.0010000000474974513 C-162.28199768066406,-91.87799835205078 -89.48899841308594,-166.61300659179688 0.0010000000474974513,-166.61300659179688 C89.48899841308594,-166.61300659179688 162.28199768066406,-91.87799835205078 162.28199768066406,-0.0010000000474974513 C162.28199768066406,91.87699890136719 89.48899841308594,166.61300659179688 0.0010000000474974513,166.61300659179688z M0.0010000000474974513,-127.31900024414062 C-68.47699737548828,-127.31900024414062 -124.01000213623047,-70.11199951171875 -124.01000213623047,-0.0010000000474974513 C-124.01000213623047,70.30400085449219 -68.29000091552734,127.31800079345703 0.0010000000474974513,127.31800079345703 C68.28900146484375,127.31800079345703 124.00900268554688,70.11100006103516 124.00900268554688,-0.0010000000474974513 C124.1969985961914,-70.30500030517578 68.47799682617188,-127.31900024414062 0.0010000000474974513,-127.31900024414062z">
</path> -->

</svg>
